<mxfile host="www.draw.io" modified="2019-12-20T14:06:05.856Z" agent="Mozilla/5.0 (Windows NT 10.0; Win64; x64; rv:71.0) Gecko/20100101 Firefox/71.0" etag="ri58mWydwjIWQT7t9lnV" version="12.4.3" type="github" pages="1">
  <diagram id="Ouw1NrYOmLS6a2it-YPy" name="Page-1">
    <mxGraphModel dx="916" dy="4259" grid="1" gridSize="10" guides="1" tooltips="1" connect="1" arrows="1" fold="1" page="1" pageScale="1" pageWidth="2339" pageHeight="3300" math="0" shadow="0">
      <root>
        <mxCell id="0"/>
        <mxCell id="1" parent="0"/>
        <mxCell id="p4IeYtcJctRDCQET-8Qz-1" value="Point" style="swimlane;fontStyle=1;align=center;verticalAlign=top;childLayout=stackLayout;horizontal=1;startSize=26;horizontalStack=0;resizeParent=1;resizeParentMax=0;resizeLast=0;collapsible=1;marginBottom=0;" parent="1" vertex="1">
          <mxGeometry x="490" y="-100" width="160" height="130" as="geometry"/>
        </mxCell>
        <mxCell id="p4IeYtcJctRDCQET-8Qz-2" value="+x:float&#xa;+y:float&#xa;" style="text;strokeColor=none;fillColor=none;align=left;verticalAlign=top;spacingLeft=4;spacingRight=4;overflow=hidden;rotatable=0;points=[[0,0.5],[1,0.5]];portConstraint=eastwest;" parent="p4IeYtcJctRDCQET-8Qz-1" vertex="1">
          <mxGeometry y="26" width="160" height="44" as="geometry"/>
        </mxCell>
        <mxCell id="p4IeYtcJctRDCQET-8Qz-3" value="" style="line;strokeWidth=1;fillColor=none;align=left;verticalAlign=middle;spacingTop=-1;spacingLeft=3;spacingRight=3;rotatable=0;labelPosition=right;points=[];portConstraint=eastwest;" parent="p4IeYtcJctRDCQET-8Qz-1" vertex="1">
          <mxGeometry y="70" width="160" height="8" as="geometry"/>
        </mxCell>
        <mxCell id="p4IeYtcJctRDCQET-8Qz-4" value="+move(float,float):boolean&#xa;+distance(Point):double" style="text;strokeColor=none;fillColor=none;align=left;verticalAlign=top;spacingLeft=4;spacingRight=4;overflow=hidden;rotatable=0;points=[[0,0.5],[1,0.5]];portConstraint=eastwest;" parent="p4IeYtcJctRDCQET-8Qz-1" vertex="1">
          <mxGeometry y="78" width="160" height="52" as="geometry"/>
        </mxCell>
        <mxCell id="p4IeYtcJctRDCQET-8Qz-5" value="SizedPoint" style="swimlane;fontStyle=1;align=center;verticalAlign=top;childLayout=stackLayout;horizontal=1;startSize=26;horizontalStack=0;resizeParent=1;resizeParentMax=0;resizeLast=0;collapsible=1;marginBottom=0;" parent="1" vertex="1">
          <mxGeometry x="730" y="130" width="170" height="130" as="geometry"/>
        </mxCell>
        <mxCell id="p4IeYtcJctRDCQET-8Qz-6" value="+size:float" style="text;strokeColor=none;fillColor=none;align=left;verticalAlign=top;spacingLeft=4;spacingRight=4;overflow=hidden;rotatable=0;points=[[0,0.5],[1,0.5]];portConstraint=eastwest;" parent="p4IeYtcJctRDCQET-8Qz-5" vertex="1">
          <mxGeometry y="26" width="170" height="26" as="geometry"/>
        </mxCell>
        <mxCell id="p4IeYtcJctRDCQET-8Qz-7" value="" style="line;strokeWidth=1;fillColor=none;align=left;verticalAlign=middle;spacingTop=-1;spacingLeft=3;spacingRight=3;rotatable=0;labelPosition=right;points=[];portConstraint=eastwest;" parent="p4IeYtcJctRDCQET-8Qz-5" vertex="1">
          <mxGeometry y="52" width="170" height="8" as="geometry"/>
        </mxCell>
        <mxCell id="p4IeYtcJctRDCQET-8Qz-8" value="+centerX():float&#xa;+centerY():float&#xa;+distance(SizedPoint):double&#xa;+collides(SizedPoint):boolean" style="text;strokeColor=none;fillColor=none;align=left;verticalAlign=top;spacingLeft=4;spacingRight=4;overflow=hidden;rotatable=0;points=[[0,0.5],[1,0.5]];portConstraint=eastwest;" parent="p4IeYtcJctRDCQET-8Qz-5" vertex="1">
          <mxGeometry y="60" width="170" height="70" as="geometry"/>
        </mxCell>
        <mxCell id="p4IeYtcJctRDCQET-8Qz-9" value="Snake" style="swimlane;fontStyle=1;align=center;verticalAlign=top;childLayout=stackLayout;horizontal=1;startSize=26;horizontalStack=0;resizeParent=1;resizeParentMax=0;resizeLast=0;collapsible=1;marginBottom=0;" parent="1" vertex="1">
          <mxGeometry x="200" y="600" width="170" height="180" as="geometry"/>
        </mxCell>
        <mxCell id="p4IeYtcJctRDCQET-8Qz-10" value="+color:Color&#xa;+size:int&#xa;+point:int&#xa;" style="text;strokeColor=none;fillColor=none;align=left;verticalAlign=top;spacingLeft=4;spacingRight=4;overflow=hidden;rotatable=0;points=[[0,0.5],[1,0.5]];portConstraint=eastwest;" parent="p4IeYtcJctRDCQET-8Qz-9" vertex="1">
          <mxGeometry y="26" width="170" height="54" as="geometry"/>
        </mxCell>
        <mxCell id="p4IeYtcJctRDCQET-8Qz-11" value="" style="line;strokeWidth=1;fillColor=none;align=left;verticalAlign=middle;spacingTop=-1;spacingLeft=3;spacingRight=3;rotatable=0;labelPosition=right;points=[];portConstraint=eastwest;" parent="p4IeYtcJctRDCQET-8Qz-9" vertex="1">
          <mxGeometry y="80" width="170" height="10" as="geometry"/>
        </mxCell>
        <mxCell id="p4IeYtcJctRDCQET-8Qz-12" value="+draw(ShapeRenderer):void&#xa;&#xa;+isDead():boolean&#xa;&#xa;+move():void" style="text;strokeColor=none;fillColor=none;align=left;verticalAlign=top;spacingLeft=4;spacingRight=4;overflow=hidden;rotatable=0;points=[[0,0.5],[1,0.5]];portConstraint=eastwest;" parent="p4IeYtcJctRDCQET-8Qz-9" vertex="1">
          <mxGeometry y="90" width="170" height="90" as="geometry"/>
        </mxCell>
        <mxCell id="p4IeYtcJctRDCQET-8Qz-13" value="DirectedPoint" style="swimlane;fontStyle=1;align=center;verticalAlign=top;childLayout=stackLayout;horizontal=1;startSize=26;horizontalStack=0;resizeParent=1;resizeParentMax=0;resizeLast=0;collapsible=1;marginBottom=0;" parent="1" vertex="1">
          <mxGeometry x="120" y="140" width="170" height="86" as="geometry"/>
        </mxCell>
        <mxCell id="p4IeYtcJctRDCQET-8Qz-14" value="+direction:Direction" style="text;strokeColor=none;fillColor=none;align=left;verticalAlign=top;spacingLeft=4;spacingRight=4;overflow=hidden;rotatable=0;points=[[0,0.5],[1,0.5]];portConstraint=eastwest;" parent="p4IeYtcJctRDCQET-8Qz-13" vertex="1">
          <mxGeometry y="26" width="170" height="26" as="geometry"/>
        </mxCell>
        <mxCell id="p4IeYtcJctRDCQET-8Qz-15" value="" style="line;strokeWidth=1;fillColor=none;align=left;verticalAlign=middle;spacingTop=-1;spacingLeft=3;spacingRight=3;rotatable=0;labelPosition=right;points=[];portConstraint=eastwest;" parent="p4IeYtcJctRDCQET-8Qz-13" vertex="1">
          <mxGeometry y="52" width="170" height="8" as="geometry"/>
        </mxCell>
        <mxCell id="p4IeYtcJctRDCQET-8Qz-16" value="+setDirection(Direction):void" style="text;strokeColor=none;fillColor=none;align=left;verticalAlign=top;spacingLeft=4;spacingRight=4;overflow=hidden;rotatable=0;points=[[0,0.5],[1,0.5]];portConstraint=eastwest;" parent="p4IeYtcJctRDCQET-8Qz-13" vertex="1">
          <mxGeometry y="60" width="170" height="26" as="geometry"/>
        </mxCell>
        <mxCell id="p4IeYtcJctRDCQET-8Qz-17" value="Extends" style="endArrow=block;endSize=16;endFill=0;html=1;entryX=0.321;entryY=1.115;entryDx=0;entryDy=0;entryPerimeter=0;exitX=0.5;exitY=0;exitDx=0;exitDy=0;" parent="1" source="p4IeYtcJctRDCQET-8Qz-13" target="p4IeYtcJctRDCQET-8Qz-4" edge="1">
          <mxGeometry width="160" relative="1" as="geometry">
            <mxPoint x="203" y="320" as="sourcePoint"/>
            <mxPoint x="280" y="240" as="targetPoint"/>
          </mxGeometry>
        </mxCell>
        <mxCell id="p4IeYtcJctRDCQET-8Qz-18" value="Extends" style="endArrow=block;endSize=16;endFill=0;html=1;entryX=0.821;entryY=1.115;entryDx=0;entryDy=0;entryPerimeter=0;exitX=0.5;exitY=0;exitDx=0;exitDy=0;" parent="1" source="p4IeYtcJctRDCQET-8Qz-5" target="p4IeYtcJctRDCQET-8Qz-4" edge="1">
          <mxGeometry width="160" relative="1" as="geometry">
            <mxPoint x="210" y="270" as="sourcePoint"/>
            <mxPoint x="370" y="270" as="targetPoint"/>
            <Array as="points"/>
          </mxGeometry>
        </mxCell>
        <mxCell id="p4IeYtcJctRDCQET-8Qz-19" value="Extends" style="endArrow=block;endSize=16;endFill=0;html=1;entryX=0.563;entryY=1.154;entryDx=0;entryDy=0;entryPerimeter=0;exitX=0.556;exitY=-0.023;exitDx=0;exitDy=0;exitPerimeter=0;" parent="1" source="p4IeYtcJctRDCQET-8Qz-9" target="p4IeYtcJctRDCQET-8Qz-16" edge="1">
          <mxGeometry width="160" relative="1" as="geometry">
            <mxPoint x="120" y="450" as="sourcePoint"/>
            <mxPoint x="190" y="450" as="targetPoint"/>
            <mxPoint as="offset"/>
          </mxGeometry>
        </mxCell>
        <mxCell id="p4IeYtcJctRDCQET-8Qz-20" value="Magic" style="swimlane;fontStyle=1;align=center;verticalAlign=top;childLayout=stackLayout;horizontal=1;startSize=26;horizontalStack=0;resizeParent=1;resizeParentMax=0;resizeLast=0;collapsible=1;marginBottom=0;" parent="1" vertex="1">
          <mxGeometry x="720" y="500" width="260" height="280" as="geometry"/>
        </mxCell>
        <mxCell id="p4IeYtcJctRDCQET-8Qz-21" value="+active:boolean&#xa;+frames:int&#xa;+drawn:int&#xa;+lifetime:int&#xa;+srcX:int&#xa;+srcY:int&#xa;+srcWidth:int&#xa;+srcHeight:int&#xa;+rotation:float&#xa;+scale:float&#xa;&#xa;" style="text;strokeColor=none;fillColor=none;align=left;verticalAlign=top;spacingLeft=4;spacingRight=4;overflow=hidden;rotatable=0;points=[[0,0.5],[1,0.5]];portConstraint=eastwest;" parent="p4IeYtcJctRDCQET-8Qz-20" vertex="1">
          <mxGeometry y="26" width="260" height="154" as="geometry"/>
        </mxCell>
        <mxCell id="p4IeYtcJctRDCQET-8Qz-22" value="" style="line;strokeWidth=1;fillColor=none;align=left;verticalAlign=middle;spacingTop=-1;spacingLeft=3;spacingRight=3;rotatable=0;labelPosition=right;points=[];portConstraint=eastwest;" parent="p4IeYtcJctRDCQET-8Qz-20" vertex="1">
          <mxGeometry y="180" width="260" height="8" as="geometry"/>
        </mxCell>
        <mxCell id="p4IeYtcJctRDCQET-8Qz-23" value="+draw():boolean&#xa;&#xa;+action(Snake,Array&lt;Magic&gt;){abstract}:void&#xa;&#xa;+iter{abstract}:boolean" style="text;strokeColor=none;fillColor=none;align=left;verticalAlign=top;spacingLeft=4;spacingRight=4;overflow=hidden;rotatable=0;points=[[0,0.5],[1,0.5]];portConstraint=eastwest;" parent="p4IeYtcJctRDCQET-8Qz-20" vertex="1">
          <mxGeometry y="188" width="260" height="92" as="geometry"/>
        </mxCell>
        <mxCell id="p4IeYtcJctRDCQET-8Qz-24" value="Extends" style="endArrow=block;endSize=16;endFill=0;html=1;entryX=0.556;entryY=0.962;entryDx=0;entryDy=0;entryPerimeter=0;exitX=0.544;exitY=-0.035;exitDx=0;exitDy=0;exitPerimeter=0;" parent="1" source="p4IeYtcJctRDCQET-8Qz-20" target="p4IeYtcJctRDCQET-8Qz-8" edge="1">
          <mxGeometry width="160" relative="1" as="geometry">
            <mxPoint x="250" y="460" as="sourcePoint"/>
            <mxPoint x="410" y="460" as="targetPoint"/>
          </mxGeometry>
        </mxCell>
        <mxCell id="p4IeYtcJctRDCQET-8Qz-30" value="Flip" style="swimlane;fontStyle=1;align=center;verticalAlign=top;childLayout=stackLayout;horizontal=1;startSize=26;horizontalStack=0;resizeParent=1;resizeParentMax=0;resizeLast=0;collapsible=1;marginBottom=0;" parent="1" vertex="1">
          <mxGeometry x="750" y="1030" width="200" height="120" as="geometry"/>
        </mxCell>
        <mxCell id="p4IeYtcJctRDCQET-8Qz-31" value="-snake:Snake" style="text;strokeColor=none;fillColor=none;align=left;verticalAlign=top;spacingLeft=4;spacingRight=4;overflow=hidden;rotatable=0;points=[[0,0.5],[1,0.5]];portConstraint=eastwest;" parent="p4IeYtcJctRDCQET-8Qz-30" vertex="1">
          <mxGeometry y="26" width="200" height="26" as="geometry"/>
        </mxCell>
        <mxCell id="p4IeYtcJctRDCQET-8Qz-32" value="" style="line;strokeWidth=1;fillColor=none;align=left;verticalAlign=middle;spacingTop=-1;spacingLeft=3;spacingRight=3;rotatable=0;labelPosition=right;points=[];portConstraint=eastwest;" parent="p4IeYtcJctRDCQET-8Qz-30" vertex="1">
          <mxGeometry y="52" width="200" height="8" as="geometry"/>
        </mxCell>
        <mxCell id="p4IeYtcJctRDCQET-8Qz-33" value="+action(Snake,Array&lt;Magic&gt;);void&#xa;+draw():boolean&#xa;+iter():boolean" style="text;strokeColor=none;fillColor=none;align=left;verticalAlign=top;spacingLeft=4;spacingRight=4;overflow=hidden;rotatable=0;points=[[0,0.5],[1,0.5]];portConstraint=eastwest;" parent="p4IeYtcJctRDCQET-8Qz-30" vertex="1">
          <mxGeometry y="60" width="200" height="60" as="geometry"/>
        </mxCell>
        <mxCell id="p4IeYtcJctRDCQET-8Qz-34" value="Growth" style="swimlane;fontStyle=1;align=center;verticalAlign=top;childLayout=stackLayout;horizontal=1;startSize=26;horizontalStack=0;resizeParent=1;resizeParentMax=0;resizeLast=0;collapsible=1;marginBottom=0;" parent="1" vertex="1">
          <mxGeometry x="490" y="1034" width="210" height="110" as="geometry"/>
        </mxCell>
        <mxCell id="p4IeYtcJctRDCQET-8Qz-35" value="-snake:Snake" style="text;strokeColor=none;fillColor=none;align=left;verticalAlign=top;spacingLeft=4;spacingRight=4;overflow=hidden;rotatable=0;points=[[0,0.5],[1,0.5]];portConstraint=eastwest;" parent="p4IeYtcJctRDCQET-8Qz-34" vertex="1">
          <mxGeometry y="26" width="210" height="26" as="geometry"/>
        </mxCell>
        <mxCell id="p4IeYtcJctRDCQET-8Qz-36" value="" style="line;strokeWidth=1;fillColor=none;align=left;verticalAlign=middle;spacingTop=-1;spacingLeft=3;spacingRight=3;rotatable=0;labelPosition=right;points=[];portConstraint=eastwest;" parent="p4IeYtcJctRDCQET-8Qz-34" vertex="1">
          <mxGeometry y="52" width="210" height="8" as="geometry"/>
        </mxCell>
        <mxCell id="p4IeYtcJctRDCQET-8Qz-37" value="+action(Snake,Array&lt;Magic&gt;):void&#xa;+draw():boolean&#xa;+iter():boolean" style="text;strokeColor=none;fillColor=none;align=left;verticalAlign=top;spacingLeft=4;spacingRight=4;overflow=hidden;rotatable=0;points=[[0,0.5],[1,0.5]];portConstraint=eastwest;" parent="p4IeYtcJctRDCQET-8Qz-34" vertex="1">
          <mxGeometry y="60" width="210" height="50" as="geometry"/>
        </mxCell>
        <mxCell id="p4IeYtcJctRDCQET-8Qz-38" value="Skull" style="swimlane;fontStyle=1;align=center;verticalAlign=top;childLayout=stackLayout;horizontal=1;startSize=26;horizontalStack=0;resizeParent=1;resizeParentMax=0;resizeLast=0;collapsible=1;marginBottom=0;" parent="1" vertex="1">
          <mxGeometry x="970" y="1030" width="210" height="120" as="geometry"/>
        </mxCell>
        <mxCell id="p4IeYtcJctRDCQET-8Qz-39" value="-snake:Snake" style="text;strokeColor=none;fillColor=none;align=left;verticalAlign=top;spacingLeft=4;spacingRight=4;overflow=hidden;rotatable=0;points=[[0,0.5],[1,0.5]];portConstraint=eastwest;" parent="p4IeYtcJctRDCQET-8Qz-38" vertex="1">
          <mxGeometry y="26" width="210" height="26" as="geometry"/>
        </mxCell>
        <mxCell id="p4IeYtcJctRDCQET-8Qz-40" value="" style="line;strokeWidth=1;fillColor=none;align=left;verticalAlign=middle;spacingTop=-1;spacingLeft=3;spacingRight=3;rotatable=0;labelPosition=right;points=[];portConstraint=eastwest;" parent="p4IeYtcJctRDCQET-8Qz-38" vertex="1">
          <mxGeometry y="52" width="210" height="8" as="geometry"/>
        </mxCell>
        <mxCell id="p4IeYtcJctRDCQET-8Qz-41" value="+action(Snake,Array&lt;Magic&gt;):void&#xa;+draw():boolean&#xa;+iter():boolean" style="text;strokeColor=none;fillColor=none;align=left;verticalAlign=top;spacingLeft=4;spacingRight=4;overflow=hidden;rotatable=0;points=[[0,0.5],[1,0.5]];portConstraint=eastwest;" parent="p4IeYtcJctRDCQET-8Qz-38" vertex="1">
          <mxGeometry y="60" width="210" height="60" as="geometry"/>
        </mxCell>
        <mxCell id="p4IeYtcJctRDCQET-8Qz-42" value="SpeedBoost" style="swimlane;fontStyle=1;align=center;verticalAlign=top;childLayout=stackLayout;horizontal=1;startSize=26;horizontalStack=0;resizeParent=1;resizeParentMax=0;resizeLast=0;collapsible=1;marginBottom=0;" parent="1" vertex="1">
          <mxGeometry x="1200" y="1030" width="200" height="130" as="geometry"/>
        </mxCell>
        <mxCell id="p4IeYtcJctRDCQET-8Qz-43" value="-snake:Snake" style="text;strokeColor=none;fillColor=none;align=left;verticalAlign=top;spacingLeft=4;spacingRight=4;overflow=hidden;rotatable=0;points=[[0,0.5],[1,0.5]];portConstraint=eastwest;" parent="p4IeYtcJctRDCQET-8Qz-42" vertex="1">
          <mxGeometry y="26" width="200" height="26" as="geometry"/>
        </mxCell>
        <mxCell id="p4IeYtcJctRDCQET-8Qz-44" value="" style="line;strokeWidth=1;fillColor=none;align=left;verticalAlign=middle;spacingTop=-1;spacingLeft=3;spacingRight=3;rotatable=0;labelPosition=right;points=[];portConstraint=eastwest;" parent="p4IeYtcJctRDCQET-8Qz-42" vertex="1">
          <mxGeometry y="52" width="200" height="8" as="geometry"/>
        </mxCell>
        <mxCell id="p4IeYtcJctRDCQET-8Qz-45" value="+action(Snake,Array&lt;Magic&gt;):void&#xa;+draw():boolean&#xa;+iter():boolean" style="text;strokeColor=none;fillColor=none;align=left;verticalAlign=top;spacingLeft=4;spacingRight=4;overflow=hidden;rotatable=0;points=[[0,0.5],[1,0.5]];portConstraint=eastwest;" parent="p4IeYtcJctRDCQET-8Qz-42" vertex="1">
          <mxGeometry y="60" width="200" height="70" as="geometry"/>
        </mxCell>
        <mxCell id="p4IeYtcJctRDCQET-8Qz-46" value="StarPoint" style="swimlane;fontStyle=1;align=center;verticalAlign=top;childLayout=stackLayout;horizontal=1;startSize=26;horizontalStack=0;resizeParent=1;resizeParentMax=0;resizeLast=0;collapsible=1;marginBottom=0;" parent="1" vertex="1">
          <mxGeometry x="1430" y="1030" width="200" height="114" as="geometry"/>
        </mxCell>
        <mxCell id="p4IeYtcJctRDCQET-8Qz-48" value="" style="line;strokeWidth=1;fillColor=none;align=left;verticalAlign=middle;spacingTop=-1;spacingLeft=3;spacingRight=3;rotatable=0;labelPosition=right;points=[];portConstraint=eastwest;" parent="p4IeYtcJctRDCQET-8Qz-46" vertex="1">
          <mxGeometry y="26" width="200" height="8" as="geometry"/>
        </mxCell>
        <mxCell id="p4IeYtcJctRDCQET-8Qz-49" value="+action(Snake,Array&lt;Magic&gt;):void&#xa;+draw():boolean&#xa;+iter():boolean" style="text;strokeColor=none;fillColor=none;align=left;verticalAlign=top;spacingLeft=4;spacingRight=4;overflow=hidden;rotatable=0;points=[[0,0.5],[1,0.5]];portConstraint=eastwest;" parent="p4IeYtcJctRDCQET-8Qz-46" vertex="1">
          <mxGeometry y="34" width="200" height="80" as="geometry"/>
        </mxCell>
        <mxCell id="p4IeYtcJctRDCQET-8Qz-50" value="Extends" style="endArrow=block;endSize=16;endFill=0;html=1;entryX=0.296;entryY=1.029;entryDx=0;entryDy=0;entryPerimeter=0;exitX=0.5;exitY=0;exitDx=0;exitDy=0;" parent="1" source="p4IeYtcJctRDCQET-8Qz-30" target="p4IeYtcJctRDCQET-8Qz-23" edge="1">
          <mxGeometry width="160" relative="1" as="geometry">
            <mxPoint x="470" y="630" as="sourcePoint"/>
            <mxPoint x="630" y="630" as="targetPoint"/>
          </mxGeometry>
        </mxCell>
        <mxCell id="p4IeYtcJctRDCQET-8Qz-51" value="Extends" style="endArrow=block;endSize=16;endFill=0;html=1;entryX=0.096;entryY=0.986;entryDx=0;entryDy=0;entryPerimeter=0;exitX=0.75;exitY=0;exitDx=0;exitDy=0;" parent="1" source="p4IeYtcJctRDCQET-8Qz-34" target="p4IeYtcJctRDCQET-8Qz-23" edge="1">
          <mxGeometry width="160" relative="1" as="geometry">
            <mxPoint x="650" y="650" as="sourcePoint"/>
            <mxPoint x="810" y="650" as="targetPoint"/>
          </mxGeometry>
        </mxCell>
        <mxCell id="p4IeYtcJctRDCQET-8Qz-52" value="Extends" style="endArrow=block;endSize=16;endFill=0;html=1;exitX=0.456;exitY=-0.012;exitDx=0;exitDy=0;exitPerimeter=0;entryX=0.513;entryY=1.029;entryDx=0;entryDy=0;entryPerimeter=0;" parent="1" source="p4IeYtcJctRDCQET-8Qz-38" target="p4IeYtcJctRDCQET-8Qz-23" edge="1">
          <mxGeometry width="160" relative="1" as="geometry">
            <mxPoint x="730" y="640" as="sourcePoint"/>
            <mxPoint x="823" y="588" as="targetPoint"/>
            <Array as="points"/>
          </mxGeometry>
        </mxCell>
        <mxCell id="p4IeYtcJctRDCQET-8Qz-53" value="Extends" style="endArrow=block;endSize=16;endFill=0;html=1;entryX=0.731;entryY=1.038;entryDx=0;entryDy=0;entryPerimeter=0;exitX=0.5;exitY=0;exitDx=0;exitDy=0;" parent="1" source="p4IeYtcJctRDCQET-8Qz-42" target="p4IeYtcJctRDCQET-8Qz-23" edge="1">
          <mxGeometry width="160" relative="1" as="geometry">
            <mxPoint x="910" y="640" as="sourcePoint"/>
            <mxPoint x="840" y="590" as="targetPoint"/>
          </mxGeometry>
        </mxCell>
        <mxCell id="p4IeYtcJctRDCQET-8Qz-54" value="Extends" style="endArrow=block;endSize=16;endFill=0;html=1;entryX=0.944;entryY=1.077;entryDx=0;entryDy=0;entryPerimeter=0;exitX=0.5;exitY=0;exitDx=0;exitDy=0;" parent="1" source="p4IeYtcJctRDCQET-8Qz-46" target="p4IeYtcJctRDCQET-8Qz-23" edge="1">
          <mxGeometry width="160" relative="1" as="geometry">
            <mxPoint x="1010" y="640" as="sourcePoint"/>
            <mxPoint x="1170" y="640" as="targetPoint"/>
          </mxGeometry>
        </mxCell>
        <mxCell id="p4IeYtcJctRDCQET-8Qz-55" value="SuperSnake" style="swimlane;fontStyle=1;align=center;verticalAlign=top;childLayout=stackLayout;horizontal=1;startSize=26;horizontalStack=0;resizeParent=1;resizeParentMax=0;resizeLast=0;collapsible=1;marginBottom=0;" parent="1" vertex="1">
          <mxGeometry x="1200" width="160" height="170" as="geometry"/>
        </mxCell>
        <mxCell id="p4IeYtcJctRDCQET-8Qz-56" value="+WIDTH:int&#xa;&#xa;+HEIGHT:int" style="text;strokeColor=none;fillColor=none;align=left;verticalAlign=top;spacingLeft=4;spacingRight=4;overflow=hidden;rotatable=0;points=[[0,0.5],[1,0.5]];portConstraint=eastwest;" parent="p4IeYtcJctRDCQET-8Qz-55" vertex="1">
          <mxGeometry y="26" width="160" height="54" as="geometry"/>
        </mxCell>
        <mxCell id="p4IeYtcJctRDCQET-8Qz-57" value="" style="line;strokeWidth=1;fillColor=none;align=left;verticalAlign=middle;spacingTop=-1;spacingLeft=3;spacingRight=3;rotatable=0;labelPosition=right;points=[];portConstraint=eastwest;" parent="p4IeYtcJctRDCQET-8Qz-55" vertex="1">
          <mxGeometry y="80" width="160" height="8" as="geometry"/>
        </mxCell>
        <mxCell id="p4IeYtcJctRDCQET-8Qz-58" value="+create():void&#xa;+render():void&#xa;+dispose():void" style="text;strokeColor=none;fillColor=none;align=left;verticalAlign=top;spacingLeft=4;spacingRight=4;overflow=hidden;rotatable=0;points=[[0,0.5],[1,0.5]];portConstraint=eastwest;" parent="p4IeYtcJctRDCQET-8Qz-55" vertex="1">
          <mxGeometry y="88" width="160" height="82" as="geometry"/>
        </mxCell>
        <mxCell id="p4IeYtcJctRDCQET-8Qz-60" value="" style="endArrow=open;endFill=1;endSize=12;html=1;exitX=0.3;exitY=1.008;exitDx=0;exitDy=0;exitPerimeter=0;entryX=1;entryY=0.5;entryDx=0;entryDy=0;" parent="1" source="p4IeYtcJctRDCQET-8Qz-58" target="p4IeYtcJctRDCQET-8Qz-20" edge="1">
          <mxGeometry width="160" relative="1" as="geometry">
            <mxPoint x="1040" y="430" as="sourcePoint"/>
            <mxPoint x="1200" y="430" as="targetPoint"/>
          </mxGeometry>
        </mxCell>
        <mxCell id="p4IeYtcJctRDCQET-8Qz-62" value="Use" style="endArrow=open;endSize=12;dashed=1;html=1;entryX=1;entryY=0.5;entryDx=0;entryDy=0;exitX=0;exitY=0.5;exitDx=0;exitDy=0;" parent="1" source="p4IeYtcJctRDCQET-8Qz-56" target="p4IeYtcJctRDCQET-8Qz-2" edge="1">
          <mxGeometry width="160" relative="1" as="geometry">
            <mxPoint x="730" y="200" as="sourcePoint"/>
            <mxPoint x="890" y="200" as="targetPoint"/>
          </mxGeometry>
        </mxCell>
        <mxCell id="p4IeYtcJctRDCQET-8Qz-63" value="Direction" style="swimlane;fontStyle=1;align=center;verticalAlign=top;childLayout=stackLayout;horizontal=1;startSize=26;horizontalStack=0;resizeParent=1;resizeParentMax=0;resizeLast=0;collapsible=1;marginBottom=0;" parent="1" vertex="1">
          <mxGeometry x="390" y="280" width="280" height="86" as="geometry"/>
        </mxCell>
        <mxCell id="p4IeYtcJctRDCQET-8Qz-64" value="+Direction:enum" style="text;strokeColor=none;fillColor=none;align=left;verticalAlign=top;spacingLeft=4;spacingRight=4;overflow=hidden;rotatable=0;points=[[0,0.5],[1,0.5]];portConstraint=eastwest;" parent="p4IeYtcJctRDCQET-8Qz-63" vertex="1">
          <mxGeometry y="26" width="280" height="26" as="geometry"/>
        </mxCell>
        <mxCell id="p4IeYtcJctRDCQET-8Qz-65" value="" style="line;strokeWidth=1;fillColor=none;align=left;verticalAlign=middle;spacingTop=-1;spacingLeft=3;spacingRight=3;rotatable=0;labelPosition=right;points=[];portConstraint=eastwest;" parent="p4IeYtcJctRDCQET-8Qz-63" vertex="1">
          <mxGeometry y="52" width="280" height="8" as="geometry"/>
        </mxCell>
        <mxCell id="p4IeYtcJctRDCQET-8Qz-66" value="+oppositeDirections(Direction,Direction):boolean&#xa;" style="text;strokeColor=none;fillColor=none;align=left;verticalAlign=top;spacingLeft=4;spacingRight=4;overflow=hidden;rotatable=0;points=[[0,0.5],[1,0.5]];portConstraint=eastwest;" parent="p4IeYtcJctRDCQET-8Qz-63" vertex="1">
          <mxGeometry y="60" width="280" height="26" as="geometry"/>
        </mxCell>
        <mxCell id="p4IeYtcJctRDCQET-8Qz-67" value="Colors" style="swimlane;fontStyle=1;align=center;verticalAlign=top;childLayout=stackLayout;horizontal=1;startSize=26;horizontalStack=0;resizeParent=1;resizeParentMax=0;resizeLast=0;collapsible=1;marginBottom=0;" parent="1" vertex="1">
          <mxGeometry x="1400" y="440" width="160" height="118" as="geometry"/>
        </mxCell>
        <mxCell id="p4IeYtcJctRDCQET-8Qz-68" value="+background:Color&#xa;+snake:Color&#xa;+ball:Color&#xa;+red:Color&#xa;+spray:Color&#xa;&#xa;" style="text;strokeColor=none;fillColor=none;align=left;verticalAlign=top;spacingLeft=4;spacingRight=4;overflow=hidden;rotatable=0;points=[[0,0.5],[1,0.5]];portConstraint=eastwest;" parent="p4IeYtcJctRDCQET-8Qz-67" vertex="1">
          <mxGeometry y="26" width="160" height="84" as="geometry"/>
        </mxCell>
        <mxCell id="p4IeYtcJctRDCQET-8Qz-69" value="" style="line;strokeWidth=1;fillColor=none;align=left;verticalAlign=middle;spacingTop=-1;spacingLeft=3;spacingRight=3;rotatable=0;labelPosition=right;points=[];portConstraint=eastwest;" parent="p4IeYtcJctRDCQET-8Qz-67" vertex="1">
          <mxGeometry y="110" width="160" height="8" as="geometry"/>
        </mxCell>
        <mxCell id="p4IeYtcJctRDCQET-8Qz-78" value="Use" style="endArrow=open;endSize=12;dashed=1;html=1;entryX=1.008;entryY=0.897;entryDx=0;entryDy=0;entryPerimeter=0;exitX=0;exitY=0.195;exitDx=0;exitDy=0;exitPerimeter=0;" parent="1" source="p4IeYtcJctRDCQET-8Qz-58" target="p4IeYtcJctRDCQET-8Qz-66" edge="1">
          <mxGeometry width="160" relative="1" as="geometry">
            <mxPoint x="1170" y="343.33000000000004" as="sourcePoint"/>
            <mxPoint x="1330" y="343.33000000000004" as="targetPoint"/>
            <Array as="points">
              <mxPoint x="920" y="360"/>
            </Array>
          </mxGeometry>
        </mxCell>
        <mxCell id="p4IeYtcJctRDCQET-8Qz-79" value="" style="endArrow=open;endFill=1;endSize=12;html=1;exitX=1;exitY=0.5;exitDx=0;exitDy=0;entryX=0.5;entryY=0;entryDx=0;entryDy=0;" parent="1" source="p4IeYtcJctRDCQET-8Qz-58" target="p4IeYtcJctRDCQET-8Qz-67" edge="1">
          <mxGeometry width="160" relative="1" as="geometry">
            <mxPoint x="1250" y="430" as="sourcePoint"/>
            <mxPoint x="1460" y="500" as="targetPoint"/>
          </mxGeometry>
        </mxCell>
        <mxCell id="p4IeYtcJctRDCQET-8Qz-81" value="Use" style="endArrow=open;endSize=12;dashed=1;html=1;entryX=0.375;entryY=1.115;entryDx=0;entryDy=0;entryPerimeter=0;exitX=1;exitY=0;exitDx=0;exitDy=0;" parent="1" source="p4IeYtcJctRDCQET-8Qz-9" target="p4IeYtcJctRDCQET-8Qz-66" edge="1">
          <mxGeometry width="160" relative="1" as="geometry">
            <mxPoint x="360" y="530" as="sourcePoint"/>
            <mxPoint x="520" y="530" as="targetPoint"/>
          </mxGeometry>
        </mxCell>
        <mxCell id="p4IeYtcJctRDCQET-8Qz-82" value="Use" style="endArrow=open;endSize=12;dashed=1;html=1;exitX=1;exitY=0.5;exitDx=0;exitDy=0;entryX=-0.012;entryY=-0.038;entryDx=0;entryDy=0;entryPerimeter=0;" parent="1" source="p4IeYtcJctRDCQET-8Qz-10" target="p4IeYtcJctRDCQET-8Qz-8" edge="1">
          <mxGeometry width="160" relative="1" as="geometry">
            <mxPoint x="390" y="552.33" as="sourcePoint"/>
            <mxPoint x="550" y="552.33" as="targetPoint"/>
            <Array as="points">
              <mxPoint x="660" y="410"/>
            </Array>
          </mxGeometry>
        </mxCell>
        <mxCell id="hMWj5-LRnxFb6at6n1zO-1" value="Use" style="endArrow=open;endSize=12;dashed=1;html=1;exitX=0.657;exitY=1;exitDx=0;exitDy=0;exitPerimeter=0;entryX=0.422;entryY=-0.044;entryDx=0;entryDy=0;entryPerimeter=0;" parent="1" source="p4IeYtcJctRDCQET-8Qz-58" target="p4IeYtcJctRDCQET-8Qz-46" edge="1">
          <mxGeometry width="160" relative="1" as="geometry">
            <mxPoint x="1010" y="480" as="sourcePoint"/>
            <mxPoint x="1170" y="490" as="targetPoint"/>
            <Array as="points">
              <mxPoint x="1350" y="640"/>
            </Array>
          </mxGeometry>
        </mxCell>
        <mxCell id="hMWj5-LRnxFb6at6n1zO-2" value="Use" style="endArrow=open;endSize=12;dashed=1;html=1;entryX=0.75;entryY=0;entryDx=0;entryDy=0;" parent="1" source="p4IeYtcJctRDCQET-8Qz-58" target="p4IeYtcJctRDCQET-8Qz-42" edge="1">
          <mxGeometry width="160" relative="1" as="geometry">
            <mxPoint x="950" y="570" as="sourcePoint"/>
            <mxPoint x="1110" y="570" as="targetPoint"/>
          </mxGeometry>
        </mxCell>
        <mxCell id="hMWj5-LRnxFb6at6n1zO-3" value="Use" style="endArrow=open;endSize=12;dashed=1;html=1;entryX=0.915;entryY=-0.007;entryDx=0;entryDy=0;entryPerimeter=0;" parent="1" source="p4IeYtcJctRDCQET-8Qz-58" target="p4IeYtcJctRDCQET-8Qz-38" edge="1">
          <mxGeometry width="160" relative="1" as="geometry">
            <mxPoint x="900" y="570" as="sourcePoint"/>
            <mxPoint x="1060" y="570" as="targetPoint"/>
          </mxGeometry>
        </mxCell>
        <mxCell id="hMWj5-LRnxFb6at6n1zO-4" value="Use" style="endArrow=open;endSize=12;dashed=1;html=1;exitX=-0.033;exitY=0.699;exitDx=0;exitDy=0;exitPerimeter=0;" parent="1" source="p4IeYtcJctRDCQET-8Qz-58" target="p4IeYtcJctRDCQET-8Qz-34" edge="1">
          <mxGeometry x="-0.0499" y="-1" width="160" relative="1" as="geometry">
            <mxPoint x="910" y="542.5" as="sourcePoint"/>
            <mxPoint x="1070" y="542.5" as="targetPoint"/>
            <Array as="points">
              <mxPoint x="880" y="430"/>
              <mxPoint x="660" y="470"/>
            </Array>
            <mxPoint as="offset"/>
          </mxGeometry>
        </mxCell>
        <mxCell id="hMWj5-LRnxFb6at6n1zO-7" value="Use" style="endArrow=open;endSize=12;dashed=1;html=1;exitX=0.033;exitY=1.041;exitDx=0;exitDy=0;exitPerimeter=0;entryX=0.362;entryY=0.012;entryDx=0;entryDy=0;entryPerimeter=0;" parent="1" source="p4IeYtcJctRDCQET-8Qz-58" target="p4IeYtcJctRDCQET-8Qz-30" edge="1">
          <mxGeometry width="160" relative="1" as="geometry">
            <mxPoint x="840" y="400" as="sourcePoint"/>
            <mxPoint x="600" y="450" as="targetPoint"/>
            <Array as="points">
              <mxPoint x="910" y="480"/>
              <mxPoint x="698" y="480"/>
              <mxPoint x="698" y="830"/>
            </Array>
          </mxGeometry>
        </mxCell>
        <mxCell id="rZFsSURGuUxFLSucLiRN-1" value="" style="endArrow=open;endFill=1;endSize=12;html=1;exitX=0.881;exitY=1.077;exitDx=0;exitDy=0;exitPerimeter=0;entryX=0.058;entryY=1.022;entryDx=0;entryDy=0;entryPerimeter=0;" parent="1" source="p4IeYtcJctRDCQET-8Qz-58" target="p4IeYtcJctRDCQET-8Qz-12" edge="1">
          <mxGeometry width="160" relative="1" as="geometry">
            <mxPoint x="1260" y="800" as="sourcePoint"/>
            <mxPoint x="200" y="1000" as="targetPoint"/>
            <Array as="points">
              <mxPoint x="1380" y="680"/>
              <mxPoint x="1750" y="680"/>
              <mxPoint x="1750" y="1350"/>
              <mxPoint x="200" y="1350"/>
            </Array>
          </mxGeometry>
        </mxCell>
        <mxCell id="rZFsSURGuUxFLSucLiRN-3" value="" style="endArrow=open;endFill=1;endSize=12;html=1;entryX=0.725;entryY=1.037;entryDx=0;entryDy=0;entryPerimeter=0;exitX=0.5;exitY=1;exitDx=0;exitDy=0;exitPerimeter=0;" parent="1" source="p4IeYtcJctRDCQET-8Qz-33" target="p4IeYtcJctRDCQET-8Qz-12" edge="1">
          <mxGeometry width="160" relative="1" as="geometry">
            <mxPoint x="343" y="710" as="sourcePoint"/>
            <mxPoint x="440" y="660" as="targetPoint"/>
            <Array as="points">
              <mxPoint x="720" y="1240"/>
              <mxPoint x="310" y="1240"/>
            </Array>
          </mxGeometry>
        </mxCell>
        <mxCell id="rZFsSURGuUxFLSucLiRN-4" value="" style="endArrow=open;endFill=1;endSize=12;html=1;exitX=0.469;exitY=1.115;exitDx=0;exitDy=0;exitPerimeter=0;entryX=0.938;entryY=1;entryDx=0;entryDy=0;entryPerimeter=0;" parent="1" source="p4IeYtcJctRDCQET-8Qz-37" target="p4IeYtcJctRDCQET-8Qz-12" edge="1">
          <mxGeometry width="160" relative="1" as="geometry">
            <mxPoint x="330" y="810" as="sourcePoint"/>
            <mxPoint x="360" y="780" as="targetPoint"/>
            <Array as="points">
              <mxPoint x="525" y="1210"/>
              <mxPoint x="340" y="1210"/>
            </Array>
          </mxGeometry>
        </mxCell>
        <mxCell id="rZFsSURGuUxFLSucLiRN-5" value="" style="endArrow=open;endFill=1;endSize=12;html=1;entryX=0.55;entryY=1.037;entryDx=0;entryDy=0;entryPerimeter=0;exitX=0.544;exitY=1.077;exitDx=0;exitDy=0;exitPerimeter=0;" parent="1" source="p4IeYtcJctRDCQET-8Qz-41" target="p4IeYtcJctRDCQET-8Qz-12" edge="1">
          <mxGeometry width="160" relative="1" as="geometry">
            <mxPoint x="200" y="980" as="sourcePoint"/>
            <mxPoint x="360" y="980" as="targetPoint"/>
            <Array as="points">
              <mxPoint x="920" y="1270"/>
              <mxPoint x="290" y="1270"/>
            </Array>
          </mxGeometry>
        </mxCell>
        <mxCell id="rZFsSURGuUxFLSucLiRN-6" value="" style="endArrow=open;endFill=1;endSize=12;html=1;exitX=0.55;exitY=1;exitDx=0;exitDy=0;exitPerimeter=0;" parent="1" source="p4IeYtcJctRDCQET-8Qz-45" edge="1">
          <mxGeometry width="160" relative="1" as="geometry">
            <mxPoint x="310" y="870" as="sourcePoint"/>
            <mxPoint x="260" y="771" as="targetPoint"/>
            <Array as="points">
              <mxPoint x="1098" y="1300"/>
              <mxPoint x="250" y="1300"/>
            </Array>
          </mxGeometry>
        </mxCell>
        <mxCell id="rZFsSURGuUxFLSucLiRN-7" value="" style="endArrow=open;endFill=1;endSize=12;html=1;exitX=0.696;exitY=1.025;exitDx=0;exitDy=0;exitPerimeter=0;" parent="1" source="p4IeYtcJctRDCQET-8Qz-49" edge="1">
          <mxGeometry width="160" relative="1" as="geometry">
            <mxPoint x="1200" y="900" as="sourcePoint"/>
            <mxPoint x="225" y="770" as="targetPoint"/>
            <Array as="points">
              <mxPoint x="1320" y="1320"/>
              <mxPoint x="220" y="1320"/>
            </Array>
          </mxGeometry>
        </mxCell>
        <mxCell id="rZFsSURGuUxFLSucLiRN-9" value="" style="endArrow=open;endFill=1;endSize=12;html=1;entryX=0;entryY=0.808;entryDx=0;entryDy=0;entryPerimeter=0;exitX=0.988;exitY=0.038;exitDx=0;exitDy=0;exitPerimeter=0;" parent="1" source="p4IeYtcJctRDCQET-8Qz-16" target="p4IeYtcJctRDCQET-8Qz-64" edge="1">
          <mxGeometry width="160" relative="1" as="geometry">
            <mxPoint x="310" y="410" as="sourcePoint"/>
            <mxPoint x="470" y="410" as="targetPoint"/>
          </mxGeometry>
        </mxCell>
        <mxCell id="rZFsSURGuUxFLSucLiRN-10" value="Use" style="endArrow=open;endSize=12;dashed=1;html=1;entryX=1.031;entryY=-0.038;entryDx=0;entryDy=0;entryPerimeter=0;exitX=0.019;exitY=-0.038;exitDx=0;exitDy=0;exitPerimeter=0;" parent="1" source="p4IeYtcJctRDCQET-8Qz-23" target="p4IeYtcJctRDCQET-8Qz-12" edge="1">
          <mxGeometry width="160" relative="1" as="geometry">
            <mxPoint x="430" y="552.5" as="sourcePoint"/>
            <mxPoint x="590" y="552.5" as="targetPoint"/>
          </mxGeometry>
        </mxCell>
        <mxCell id="rZFsSURGuUxFLSucLiRN-11" value="Tail" style="swimlane;fontStyle=1;align=center;verticalAlign=top;childLayout=stackLayout;horizontal=1;startSize=26;horizontalStack=0;resizeParent=1;resizeParentMax=0;resizeLast=0;collapsible=1;marginBottom=0;" parent="1" vertex="1">
          <mxGeometry y="510" width="160" height="118" as="geometry"/>
        </mxCell>
        <mxCell id="rZFsSURGuUxFLSucLiRN-12" value="+length:float&#xa;+breaking:boolean" style="text;strokeColor=none;fillColor=none;align=left;verticalAlign=top;spacingLeft=4;spacingRight=4;overflow=hidden;rotatable=0;points=[[0,0.5],[1,0.5]];portConstraint=eastwest;" parent="rZFsSURGuUxFLSucLiRN-11" vertex="1">
          <mxGeometry y="26" width="160" height="44" as="geometry"/>
        </mxCell>
        <mxCell id="rZFsSURGuUxFLSucLiRN-13" value="" style="line;strokeWidth=1;fillColor=none;align=left;verticalAlign=middle;spacingTop=-1;spacingLeft=3;spacingRight=3;rotatable=0;labelPosition=right;points=[];portConstraint=eastwest;" parent="rZFsSURGuUxFLSucLiRN-11" vertex="1">
          <mxGeometry y="70" width="160" height="8" as="geometry"/>
        </mxCell>
        <mxCell id="rZFsSURGuUxFLSucLiRN-14" value="&#xa;" style="text;strokeColor=none;fillColor=none;align=left;verticalAlign=top;spacingLeft=4;spacingRight=4;overflow=hidden;rotatable=0;points=[[0,0.5],[1,0.5]];portConstraint=eastwest;" parent="rZFsSURGuUxFLSucLiRN-11" vertex="1">
          <mxGeometry y="78" width="160" height="40" as="geometry"/>
        </mxCell>
        <mxCell id="rZFsSURGuUxFLSucLiRN-15" value="" style="endArrow=open;endFill=1;endSize=12;html=1;exitX=0.375;exitY=1.154;exitDx=0;exitDy=0;exitPerimeter=0;entryX=0.75;entryY=1;entryDx=0;entryDy=0;" parent="1" source="rZFsSURGuUxFLSucLiRN-14" target="p4IeYtcJctRDCQET-8Qz-67" edge="1">
          <mxGeometry width="160" relative="1" as="geometry">
            <mxPoint x="10" y="970" as="sourcePoint"/>
            <mxPoint x="1528.96" y="528.9899999999998" as="targetPoint"/>
            <Array as="points">
              <mxPoint x="60" y="1430"/>
              <mxPoint x="1570" y="1430"/>
              <mxPoint x="1710" y="960"/>
            </Array>
          </mxGeometry>
        </mxCell>
        <mxCell id="rZFsSURGuUxFLSucLiRN-16" value="" style="endArrow=open;endFill=1;endSize=12;html=1;entryX=1.019;entryY=0.808;entryDx=0;entryDy=0;entryPerimeter=0;exitX=-0.006;exitY=0.846;exitDx=0;exitDy=0;exitPerimeter=0;" parent="1" source="p4IeYtcJctRDCQET-8Qz-10" target="rZFsSURGuUxFLSucLiRN-12" edge="1">
          <mxGeometry width="160" relative="1" as="geometry">
            <mxPoint x="40" y="650" as="sourcePoint"/>
            <mxPoint x="200" y="650" as="targetPoint"/>
          </mxGeometry>
        </mxCell>
        <mxCell id="86FG2NqpAamqCyFilnyC-2" value="Extends" style="endArrow=block;endSize=16;endFill=0;html=1;entryX=0.233;entryY=1.218;entryDx=0;entryDy=0;entryPerimeter=0;exitX=0.5;exitY=0;exitDx=0;exitDy=0;" edge="1" parent="1" source="rZFsSURGuUxFLSucLiRN-11" target="p4IeYtcJctRDCQET-8Qz-16">
          <mxGeometry width="160" relative="1" as="geometry">
            <mxPoint x="20" y="380" as="sourcePoint"/>
            <mxPoint x="180" y="380" as="targetPoint"/>
          </mxGeometry>
        </mxCell>
      </root>
    </mxGraphModel>
  </diagram>
</mxfile>
